{
  "asset": {
    "generator": "Khronos glTF Blender I/O v1.7.33",
    "version": "2.0"
  },
  "scene": 0,
  "scenes": [
    {
      "name": "Scene",
      "nodes": [
        0
      ]
    }
  ],
  "nodes": [
    {
      "mesh": 0,
      "name": "sphere_gltf"
    }
  ],
  "materials": [
    {
      "doubleSided": true,
      "name": "polystyrene",
      "normalTexture": {
        "index": 0
      },
      "pbrMetallicRoughness": {
        "baseColorTexture": {
          "index": 1
        },
        "metallicFactor": 0,
        "metallicRoughnessTexture": {
          "index": 2
        }
      }
    }
  ],
  "meshes": [
    {
      "name": "Sphere.001",
      "primitives": [
        {
          "attributes": {
            "POSITION": 0,
            "NORMAL": 1,
            "TEXCOORD_0": 2
          },
          "indices": 3,
          "material": 0
        }
      ]
    }
  ],
  "textures": [
    {
      "sampler": 0,
      "source": 0
    },
    {
      "sampler": 0,
      "source": 1
    },
    {
      "sampler": 0,
      "source": 2
    }
  ],
  "images": [
    {
      "mimeType": "image/jpeg",
      "name": "polystyrene_nor_gl_8k",
      "uri": "textures/polystyrene_nor_gl_1k.jpg"
    },
    {
      "mimeType": "image/jpeg",
      "name": "polystyrene_diff_8k",
      "uri": "textures/polystyrene_diff_1k.jpg"
    },
    {
      "mimeType": "image/jpeg",
      "name": "polystyrene_rough_8k",
      "uri": "textures/polystyrene_rough_1k.jpg"
    }
  ],
  "accessors": [
    {
      "bufferView": 0,
      "componentType": 5126,
      "count": 53911,
      "max": [
        0.7575342059135437,
        0.75773024559021,
        0.757887601852417
      ],
      "min": [
        -0.7575304508209229,
        -0.7576849460601807,
        -0.7578878402709961
      ],
      "type": "VEC3"
    },
    {
      "bufferView": 1,
      "componentType": 5126,
      "count": 53911,
      "type": "VEC3"
    },
    {
      "bufferView": 2,
      "componentType": 5126,
      "count": 53911,
      "type": "VEC2"
    },
    {
      "bufferView": 3,
      "componentType": 5123,
      "count": 322170,
      "type": "SCALAR"
    }
  ],
  "bufferViews": [
    {
      "buffer": 0,
      "byteLength": 646932,
      "byteOffset": 0
    },
    {
      "buffer": 0,
      "byteLength": 646932,
      "byteOffset": 646932
    },
    {
      "buffer": 0,
      "byteLength": 431288,
      "byteOffset": 1293864
    },
    {
      "buffer": 0,
      "byteLength": 644340,
      "byteOffset": 1725152
    }
  ],
  "samplers": [
    {
      "magFilter": 9729,
      "minFilter": 9987
    }
  ],
  "buffers": [
    {
      "byteLength": 2369492,
      "uri": "polystyrene.bin"
    }
  ]
}